<mxfile host="Electron" agent="Mozilla/5.0 (Windows NT 10.0; Win64; x64) AppleWebKit/537.36 (KHTML, like Gecko) draw.io/24.7.8 Chrome/128.0.6613.36 Electron/32.0.1 Safari/537.36" version="24.7.8">
  <diagram id="1zcTAVt1k4KSup7FvAfL" name="Roadmap">
    <mxGraphModel dx="4336" dy="2953" grid="1" gridSize="10" guides="1" tooltips="1" connect="1" arrows="1" fold="1" page="1" pageScale="1" pageWidth="3300" pageHeight="2339" math="0" shadow="0">
      <root>
        <mxCell id="3D7FDG2aXA9G618_Kong-0" />
        <mxCell id="3D7FDG2aXA9G618_Kong-1" parent="3D7FDG2aXA9G618_Kong-0" />
        <mxCell id="wGroBH12Sy7-OgBsN0fJ-2" value="" style="shape=rect;fillColor=#fff2cc;strokeColor=none;fontSize=24;html=1;whiteSpace=wrap;align=left;verticalAlign=top;spacing=5;rounded=0;" parent="3D7FDG2aXA9G618_Kong-1" vertex="1">
          <mxGeometry x="-2500" y="-770" width="2410" height="270" as="geometry" />
        </mxCell>
        <mxCell id="wGroBH12Sy7-OgBsN0fJ-4" value="" style="shape=rect;fillColor=#fff2cc;strokeColor=none;fontSize=24;html=1;whiteSpace=wrap;align=left;verticalAlign=top;spacing=5;rounded=0;" parent="3D7FDG2aXA9G618_Kong-1" vertex="1">
          <mxGeometry x="-2500" y="-1140.8" width="2410" height="360.8" as="geometry" />
        </mxCell>
        <mxCell id="wGroBH12Sy7-OgBsN0fJ-5" value="T1 - Развёртывание Kafka" style="shape=rect;fillColor=#ffe6cc;strokeColor=#d79b00;fontSize=18;html=1;whiteSpace=wrap;align=left;verticalAlign=middle;spacing=5;rounded=0;" parent="3D7FDG2aXA9G618_Kong-1" vertex="1">
          <mxGeometry x="-2480" y="-1130" width="300" height="70" as="geometry" />
        </mxCell>
        <mxCell id="wGroBH12Sy7-OgBsN0fJ-6" value="&lt;span style=&quot;&quot;&gt;T3 -&amp;nbsp;&lt;/span&gt;Интеграция СУБД с Kafka для передачи/приёма ставок" style="shape=rect;fillColor=#ffe6cc;strokeColor=#d79b00;fontSize=18;html=1;whiteSpace=wrap;align=left;verticalAlign=middle;spacing=5;rounded=0;" parent="3D7FDG2aXA9G618_Kong-1" vertex="1">
          <mxGeometry x="-2060" y="-1040" width="300" height="70" as="geometry" />
        </mxCell>
        <mxCell id="wGroBH12Sy7-OgBsN0fJ-7" value="АБС" style="rounded=0;whiteSpace=wrap;html=1;fillColor=#f5f5f5;fontColor=#333333;strokeColor=#666666;fontSize=18;" parent="3D7FDG2aXA9G618_Kong-1" vertex="1">
          <mxGeometry x="-2630" y="-1140.8" width="120" height="360.8" as="geometry" />
        </mxCell>
        <mxCell id="wGroBH12Sy7-OgBsN0fJ-8" value="Интернет-банк" style="rounded=0;whiteSpace=wrap;html=1;fillColor=#f5f5f5;fontColor=#333333;strokeColor=#666666;fontSize=18;" parent="3D7FDG2aXA9G618_Kong-1" vertex="1">
          <mxGeometry x="-2630" y="-770" width="120" height="270" as="geometry" />
        </mxCell>
        <mxCell id="wGroBH12Sy7-OgBsN0fJ-9" value="Q1" style="shape=step;perimeter=stepPerimeter;whiteSpace=wrap;html=1;fixedSize=1;size=10;fillColor=#f5f5f5;strokeColor=#666666;fontSize=18;fontStyle=1;align=center;rounded=0;fontColor=#333333;" parent="3D7FDG2aXA9G618_Kong-1" vertex="1">
          <mxGeometry x="-2500" y="-1230" width="1200" height="74.4" as="geometry" />
        </mxCell>
        <mxCell id="RwSQezwdNiI7fE7qIiGB-0" value="T2 - Реализация функционала по управлению ставками для бэк-офиса" style="shape=rect;fillColor=#ffe6cc;strokeColor=#d79b00;fontSize=18;html=1;whiteSpace=wrap;align=left;verticalAlign=middle;spacing=5;rounded=0;" parent="3D7FDG2aXA9G618_Kong-1" vertex="1">
          <mxGeometry x="-2480" y="-1040" width="400" height="70" as="geometry" />
        </mxCell>
        <mxCell id="RwSQezwdNiI7fE7qIiGB-1" value="&lt;span style=&quot;font-size: 18px;&quot;&gt;T4 -&amp;nbsp;&lt;/span&gt;Интеграция СУБД с Kafka для приёма заявок&amp;nbsp;" style="shape=rect;fillColor=#ffe6cc;strokeColor=#d79b00;fontSize=18;html=1;whiteSpace=wrap;align=left;verticalAlign=middle;spacing=5;rounded=0;" parent="3D7FDG2aXA9G618_Kong-1" vertex="1">
          <mxGeometry x="-2060" y="-860" width="300" height="70" as="geometry" />
        </mxCell>
        <mxCell id="RwSQezwdNiI7fE7qIiGB-2" value="&lt;span style=&quot;&quot;&gt;T5 -&amp;nbsp;&lt;/span&gt;Создание сервиса передачи ставок в партёрский кол-центр" style="shape=rect;fillColor=#f8cecc;strokeColor=#b85450;fontSize=18;html=1;whiteSpace=wrap;align=left;verticalAlign=middle;spacing=5;rounded=0;" parent="3D7FDG2aXA9G618_Kong-1" vertex="1">
          <mxGeometry x="-1960" y="-950" width="400" height="70" as="geometry" />
        </mxCell>
        <mxCell id="RwSQezwdNiI7fE7qIiGB-3" value="&lt;span style=&quot;&quot;&gt;T6 -&amp;nbsp;&lt;/span&gt;Интеграция с партнёрским кол-центром для передачи ставок" style="shape=rect;fillColor=#f8cecc;strokeColor=#b85450;fontSize=18;html=1;whiteSpace=wrap;align=left;verticalAlign=middle;spacing=5;rounded=0;" parent="3D7FDG2aXA9G618_Kong-1" vertex="1">
          <mxGeometry x="-1540" y="-950" width="400" height="70" as="geometry" />
        </mxCell>
        <mxCell id="RwSQezwdNiI7fE7qIiGB-6" value="Q2" style="shape=step;perimeter=stepPerimeter;whiteSpace=wrap;html=1;fixedSize=1;size=10;fillColor=#f5f5f5;strokeColor=#666666;fontSize=18;fontStyle=1;align=center;rounded=0;fontColor=#333333;" parent="3D7FDG2aXA9G618_Kong-1" vertex="1">
          <mxGeometry x="-1290" y="-1230" width="1200" height="74.4" as="geometry" />
        </mxCell>
        <mxCell id="RwSQezwdNiI7fE7qIiGB-7" value="T11 - Интеграция с АБС для получения ставок" style="shape=rect;fillColor=#ffe6cc;strokeColor=#d79b00;fontSize=18;html=1;whiteSpace=wrap;align=left;verticalAlign=middle;spacing=5;rounded=0;" parent="3D7FDG2aXA9G618_Kong-1" vertex="1">
          <mxGeometry x="-1950" y="-670" width="300" height="70" as="geometry" />
        </mxCell>
        <mxCell id="RwSQezwdNiI7fE7qIiGB-8" value="T12 - Интеграция с АБС для передачи заявок" style="shape=rect;fillColor=#ffe6cc;strokeColor=#d79b00;fontSize=18;html=1;whiteSpace=wrap;align=left;verticalAlign=middle;spacing=5;rounded=0;" parent="3D7FDG2aXA9G618_Kong-1" vertex="1">
          <mxGeometry x="-1590" y="-580" width="300" height="70" as="geometry" />
        </mxCell>
        <mxCell id="RwSQezwdNiI7fE7qIiGB-9" value="T8 - Реализация функционала для подтверждения операций по СМС-коду" style="shape=rect;fillColor=#ffe6cc;strokeColor=#d79b00;fontSize=18;html=1;whiteSpace=wrap;align=left;verticalAlign=middle;spacing=5;rounded=0;" parent="3D7FDG2aXA9G618_Kong-1" vertex="1">
          <mxGeometry x="-2480" y="-580" width="400" height="70" as="geometry" />
        </mxCell>
        <mxCell id="RwSQezwdNiI7fE7qIiGB-10" value="T10 - Создание сервиса открытия депозитов" style="shape=rect;fillColor=#ffe6cc;strokeColor=#d79b00;fontSize=18;html=1;whiteSpace=wrap;align=left;verticalAlign=middle;spacing=5;rounded=0;" parent="3D7FDG2aXA9G618_Kong-1" vertex="1">
          <mxGeometry x="-2010" y="-580" width="400" height="70" as="geometry" />
        </mxCell>
        <mxCell id="RwSQezwdNiI7fE7qIiGB-11" value="T9 - Создание сервиса актуализации ставок" style="shape=rect;fillColor=#ffe6cc;strokeColor=#d79b00;fontSize=18;html=1;whiteSpace=wrap;align=left;verticalAlign=middle;spacing=5;rounded=0;" parent="3D7FDG2aXA9G618_Kong-1" vertex="1">
          <mxGeometry x="-2370" y="-670" width="400" height="70" as="geometry" />
        </mxCell>
        <mxCell id="RwSQezwdNiI7fE7qIiGB-12" value="T7 - Развёртывание Kubernetes под сервисы интернет-банка" style="shape=rect;fillColor=#ffe6cc;strokeColor=#d79b00;fontSize=18;html=1;whiteSpace=wrap;align=left;verticalAlign=middle;spacing=5;rounded=0;" parent="3D7FDG2aXA9G618_Kong-1" vertex="1">
          <mxGeometry x="-2480" y="-759" width="300" height="70" as="geometry" />
        </mxCell>
        <mxCell id="RwSQezwdNiI7fE7qIiGB-13" value="" style="shape=rect;fillColor=#fff2cc;strokeColor=none;fontSize=24;html=1;whiteSpace=wrap;align=left;verticalAlign=top;spacing=5;rounded=0;" parent="3D7FDG2aXA9G618_Kong-1" vertex="1">
          <mxGeometry x="-2500" y="-490" width="2410" height="270" as="geometry" />
        </mxCell>
        <mxCell id="RwSQezwdNiI7fE7qIiGB-14" value="Кол-центр" style="rounded=0;whiteSpace=wrap;html=1;fillColor=#f5f5f5;fontColor=#333333;strokeColor=#666666;fontSize=18;" parent="3D7FDG2aXA9G618_Kong-1" vertex="1">
          <mxGeometry x="-2630" y="-490" width="120" height="270" as="geometry" />
        </mxCell>
        <mxCell id="RwSQezwdNiI7fE7qIiGB-15" value="T15 - Интеграция с АБС для получения ставок" style="shape=rect;fillColor=#f8cecc;strokeColor=#b85450;fontSize=18;html=1;whiteSpace=wrap;align=left;verticalAlign=middle;spacing=5;rounded=0;" parent="3D7FDG2aXA9G618_Kong-1" vertex="1">
          <mxGeometry x="-1950" y="-480" width="300" height="70" as="geometry" />
        </mxCell>
        <mxCell id="RwSQezwdNiI7fE7qIiGB-19" value="T16 - Переход на асинхронный механизм передачи заявок в АБС через Kafka" style="shape=rect;fillColor=#ffe6cc;strokeColor=#d79b00;fontSize=18;html=1;whiteSpace=wrap;align=left;verticalAlign=middle;spacing=5;rounded=0;" parent="3D7FDG2aXA9G618_Kong-1" vertex="1">
          <mxGeometry x="-1810" y="-300" width="400" height="70" as="geometry" />
        </mxCell>
        <mxCell id="RwSQezwdNiI7fE7qIiGB-20" value="T14 - Реализация функционала для приёма заявок с сайта" style="shape=rect;fillColor=#ffe6cc;strokeColor=#d79b00;fontSize=18;html=1;whiteSpace=wrap;align=left;verticalAlign=middle;spacing=5;rounded=0;" parent="3D7FDG2aXA9G618_Kong-1" vertex="1">
          <mxGeometry x="-2010" y="-390" width="400" height="70" as="geometry" />
        </mxCell>
        <mxCell id="RwSQezwdNiI7fE7qIiGB-21" value="" style="shape=rect;fillColor=#fff2cc;strokeColor=none;fontSize=24;html=1;whiteSpace=wrap;align=left;verticalAlign=top;spacing=5;rounded=0;" parent="3D7FDG2aXA9G618_Kong-1" vertex="1">
          <mxGeometry x="-2500" y="-210" width="2410" height="270" as="geometry" />
        </mxCell>
        <mxCell id="RwSQezwdNiI7fE7qIiGB-22" value="Сайт" style="rounded=0;whiteSpace=wrap;html=1;fillColor=#f5f5f5;fontColor=#333333;strokeColor=#666666;fontSize=18;" parent="3D7FDG2aXA9G618_Kong-1" vertex="1">
          <mxGeometry x="-2630" y="-210" width="120" height="270" as="geometry" />
        </mxCell>
        <mxCell id="RwSQezwdNiI7fE7qIiGB-23" value="T19 - Реализация функционала для создания заявок на открытие депозитов" style="shape=rect;fillColor=#ffe6cc;strokeColor=#d79b00;fontSize=18;html=1;whiteSpace=wrap;align=left;verticalAlign=middle;spacing=5;rounded=0;" parent="3D7FDG2aXA9G618_Kong-1" vertex="1">
          <mxGeometry x="-2010" y="-20" width="400" height="70" as="geometry" />
        </mxCell>
        <mxCell id="RwSQezwdNiI7fE7qIiGB-24" value="T18 - Реализация функционала для отображения ставок" style="shape=rect;fillColor=#ffe6cc;strokeColor=#d79b00;fontSize=18;html=1;whiteSpace=wrap;align=left;verticalAlign=middle;spacing=5;rounded=0;" parent="3D7FDG2aXA9G618_Kong-1" vertex="1">
          <mxGeometry x="-2370" y="-110" width="400" height="70" as="geometry" />
        </mxCell>
        <mxCell id="RwSQezwdNiI7fE7qIiGB-25" value="T17 - Развёртывание Kubernetes под сервисы сайта" style="shape=rect;fillColor=#ffe6cc;strokeColor=#d79b00;fontSize=18;html=1;whiteSpace=wrap;align=left;verticalAlign=middle;spacing=5;rounded=0;" parent="3D7FDG2aXA9G618_Kong-1" vertex="1">
          <mxGeometry x="-2480" y="-200" width="300" height="70" as="geometry" />
        </mxCell>
        <mxCell id="RwSQezwdNiI7fE7qIiGB-26" value="T20 - Интеграция с АБС для получения ставок" style="shape=rect;fillColor=#ffe6cc;strokeColor=#d79b00;fontSize=18;html=1;whiteSpace=wrap;align=left;verticalAlign=middle;spacing=5;rounded=0;" parent="3D7FDG2aXA9G618_Kong-1" vertex="1">
          <mxGeometry x="-1950" y="-110" width="300" height="70" as="geometry" />
        </mxCell>
        <mxCell id="RwSQezwdNiI7fE7qIiGB-27" value="T21 - Интеграция с кол-центром для передачи заявок" style="shape=rect;fillColor=#ffe6cc;strokeColor=#d79b00;fontSize=18;html=1;whiteSpace=wrap;align=left;verticalAlign=middle;spacing=5;rounded=0;" parent="3D7FDG2aXA9G618_Kong-1" vertex="1">
          <mxGeometry x="-1590" y="-20" width="300" height="70" as="geometry" />
        </mxCell>
        <mxCell id="RwSQezwdNiI7fE7qIiGB-28" value="T13 - Реализация функционала для отображения ставок в системе кол-центра" style="shape=rect;fillColor=#f8cecc;strokeColor=#b85450;fontSize=18;html=1;whiteSpace=wrap;align=left;verticalAlign=middle;spacing=5;rounded=0;" parent="3D7FDG2aXA9G618_Kong-1" vertex="1">
          <mxGeometry x="-2370" y="-480" width="400" height="70" as="geometry" />
        </mxCell>
        <mxCell id="RwSQezwdNiI7fE7qIiGB-30" value="" style="rounded=0;whiteSpace=wrap;html=1;fillColor=#ffe6cc;strokeColor=#d79b00;" parent="3D7FDG2aXA9G618_Kong-1" vertex="1">
          <mxGeometry x="-2630" y="200" width="120" height="60" as="geometry" />
        </mxCell>
        <mxCell id="RwSQezwdNiI7fE7qIiGB-33" value="- открытие депозитов онлайн" style="text;html=1;align=left;verticalAlign=middle;whiteSpace=wrap;rounded=0;fontSize=18;" parent="3D7FDG2aXA9G618_Kong-1" vertex="1">
          <mxGeometry x="-2490" y="200" width="300" height="60" as="geometry" />
        </mxCell>
        <mxCell id="RwSQezwdNiI7fE7qIiGB-34" value="" style="rounded=0;whiteSpace=wrap;html=1;fillColor=#f8cecc;strokeColor=#b85450;" parent="3D7FDG2aXA9G618_Kong-1" vertex="1">
          <mxGeometry x="-2630" y="280" width="120" height="60" as="geometry" />
        </mxCell>
        <mxCell id="RwSQezwdNiI7fE7qIiGB-35" value="- передача ставок в кол-центр" style="text;html=1;align=left;verticalAlign=middle;whiteSpace=wrap;rounded=0;fontSize=18;" parent="3D7FDG2aXA9G618_Kong-1" vertex="1">
          <mxGeometry x="-2490" y="280" width="300" height="60" as="geometry" />
        </mxCell>
      </root>
    </mxGraphModel>
  </diagram>
</mxfile>
